<svg width="1280" height="640" viewBox="0 0 1280 640" fill="none" xmlns="http://www.w3.org/2000/svg">
<rect width="1280" height="640" fill="#57A5ED"/>
<path d="M411.996 294.142V280.285H398.139V266.427H411.996V252.57H467.426V238.712H411.996V224.855H481.284V238.712H495.141V294.142H411.996ZM425.854 280.285H467.426V266.427H425.854V280.285Z" fill="#FEFEFE"/>
<path d="M536.714 280.285H550.571V294.142H522.856V280.285H508.999V224.855H536.714V280.285ZM564.429 224.855V280.285H550.571V224.855H564.429ZM606.001 224.855V280.285H592.144V294.142H564.429V280.285H578.286V224.855H606.001Z" fill="#FEFEFE"/>
<path d="M633.716 294.142V280.285H619.859V238.712H633.716V224.855H703.004V238.712H716.861V266.427H647.574V280.285H703.004V294.142H633.716ZM647.574 252.57H689.146V238.712H647.574V252.57Z" fill="#FEFEFE"/>
<path d="M730.719 294.142V280.285H800.006V266.427H744.576V252.57H730.719V238.712H744.576V224.855H813.864V238.712H758.434V252.57H813.864V266.427H827.721V280.285H813.864V294.142H730.719Z" fill="#FEFEFE"/>
<path d="M855.436 294.142V280.285H841.579V238.712H855.436V224.855H924.724V238.712H938.581V280.285H924.724V294.142H855.436ZM869.294 280.285H910.866V238.712H869.294V280.285Z" fill="#FEFEFE"/>
<path d="M952.439 294.142V224.855H1035.58V238.712H1049.44V294.142H1021.73V238.712H1007.87V294.142H980.154V238.712H966.296V294.142H952.439Z" fill="#FEFEFE"/>
<path d="M1077.16 294.142V280.285H1063.3V238.712H1077.16V224.855H1146.44V238.712H1160.3V266.427H1091.01V280.285H1146.44V294.142H1077.16ZM1091.01 252.57H1132.59V238.712H1091.01V252.57Z" fill="#FEFEFE"/>
<path d="M439.711 429.142V373.712H411.996V359.855H439.711V332.14H467.426V359.855H495.141V373.712H467.426V429.142H439.711Z" fill="#FEFEFE"/>
<path d="M522.856 429.142V415.285H508.999V373.712H522.856V359.855H592.144V373.712H606.001V415.285H592.144V429.142H522.856ZM536.714 415.285H578.286V373.712H536.714V415.285Z" fill="#FEFEFE"/>
<path d="M633.716 429.142V415.285H619.859V373.712H633.716V359.855H703.004V373.712H716.861V415.285H703.004V429.142H633.716ZM647.574 415.285H689.146V373.712H647.574V415.285Z" fill="#FEFEFE"/>
<path d="M744.576 429.142V415.285H772.291V345.997H758.434V332.14H800.006V415.285H827.721V429.142H744.576Z" fill="#FEFEFE"/>
<g clip-path="url(#clip0_2_369)">
<rect x="166.713" y="230.072" width="192.854" height="23.1425" fill="#FEFEFE"/>
<rect x="105" y="233.929" width="30.8566" height="15.4283" fill="#FEFEFE"/>
<rect x="112.714" y="257.071" width="30.8566" height="15.4283" transform="rotate(-90 112.714 257.071)" fill="#FEFEFE"/>
<rect x="166.713" y="314.927" width="192.854" height="23.1425" fill="#FEFEFE"/>
<rect x="105" y="318.784" width="30.8566" height="15.4283" fill="#FEFEFE"/>
<rect x="112.714" y="341.927" width="30.8566" height="15.4283" transform="rotate(-90 112.714 341.927)" fill="#FEFEFE"/>
<rect x="166.713" y="399.783" width="192.854" height="23.1425" fill="#FEFEFE"/>
<rect x="105" y="403.64" width="30.8566" height="15.4283" fill="#FEFEFE"/>
<rect x="112.714" y="426.782" width="30.8566" height="15.4283" transform="rotate(-90 112.714 426.782)" fill="#FEFEFE"/>
</g>
<defs>
<clipPath id="clip0_2_369">
<rect width="254.567" height="200.568" fill="white" transform="translate(105 226.215)"/>
</clipPath>
</defs>
</svg>
