<svg width="1280" height="428" viewBox="0 0 1280 428" fill="none" xmlns="http://www.w3.org/2000/svg">
<rect width="1280" height="428" fill="#57A5ED"/>
<g clip-path="url(#clip0_2_369)">
<rect x="173.713" y="117.857" width="192.854" height="23.1425" fill="#FEFEFE"/>
<rect x="112" y="121.714" width="30.8566" height="15.4283" fill="#FEFEFE"/>
<rect x="119.714" y="144.857" width="30.8566" height="15.4283" transform="rotate(-90 119.714 144.857)" fill="#FEFEFE"/>
<rect x="173.713" y="202.713" width="192.854" height="23.1425" fill="#FEFEFE"/>
<rect x="112" y="206.57" width="30.8566" height="15.4283" fill="#FEFEFE"/>
<rect x="119.714" y="229.712" width="30.8566" height="15.4283" transform="rotate(-90 119.714 229.712)" fill="#FEFEFE"/>
<rect x="173.713" y="287.568" width="192.854" height="23.1425" fill="#FEFEFE"/>
<rect x="112" y="291.425" width="30.8566" height="15.4283" fill="#FEFEFE"/>
<rect x="119.714" y="314.568" width="30.8566" height="15.4283" transform="rotate(-90 119.714 314.568)" fill="#FEFEFE"/>
</g>
<path d="M419.855 181.19V167.352H406V153.514H419.855V139.676H475.273V125.838H419.855V112H489.127V125.838H502.982V181.19H419.855ZM433.709 167.352H475.273V153.514H433.709V167.352Z" fill="#FEFEFE"/>
<path d="M544.545 167.352H558.4V181.19H530.691V167.352H516.836V112H544.545V167.352ZM572.255 112V167.352H558.4V112H572.255ZM613.818 112V167.352H599.964V181.19H572.255V167.352H586.109V112H613.818Z" fill="#FEFEFE"/>
<path d="M641.527 181.19V167.352H627.673V125.838H641.527V112H710.8V125.838H724.655V153.514H655.382V167.352H710.8V181.19H641.527ZM655.382 139.676H696.945V125.838H655.382V139.676Z" fill="#FEFEFE"/>
<path d="M738.509 181.19V167.352H807.782V153.514H752.364V139.676H738.509V125.838H752.364V112H821.636V125.838H766.218V139.676H821.636V153.514H835.491V167.352H821.636V181.19H738.509Z" fill="#FEFEFE"/>
<path d="M863.2 181.19V167.352H849.345V125.838H863.2V112H932.473V125.838H946.327V167.352H932.473V181.19H863.2ZM877.055 167.352H918.618V125.838H877.055V167.352Z" fill="#FEFEFE"/>
<path d="M960.182 181.19V112H1043.31V125.838H1057.16V181.19H1029.45V125.838H1015.6V181.19H987.891V125.838H974.036V181.19H960.182Z" fill="#FEFEFE"/>
<path d="M1084.87 181.19V167.352H1071.02V125.838H1084.87V112H1154.15V125.838H1168V153.514H1098.73V167.352H1154.15V181.19H1084.87ZM1098.73 139.676H1140.29V125.838H1098.73V139.676Z" fill="#FEFEFE"/>
<path d="M447.564 316V260.648H419.855V246.81H447.564V219.134H475.273V246.81H502.982V260.648H475.273V316H447.564Z" fill="#FEFEFE"/>
<path d="M530.691 316V302.162H516.836V260.648H530.691V246.81H599.964V260.648H613.818V302.162H599.964V316H530.691ZM544.545 302.162H586.109V260.648H544.545V302.162Z" fill="#FEFEFE"/>
<path d="M641.527 316V302.162H627.673V260.648H641.527V246.81H710.8V260.648H724.655V302.162H710.8V316H641.527ZM655.382 302.162H696.945V260.648H655.382V302.162Z" fill="#FEFEFE"/>
<path d="M752.364 316V302.162H780.073V232.972H766.218V219.134H807.782V302.162H835.491V316H752.364Z" fill="#FEFEFE"/>
<defs>
<clipPath id="clip0_2_369">
<rect width="254" height="200" fill="white" transform="translate(112 114)"/>
</clipPath>
</defs>
</svg>
